HIERARCHY
ROOT Hips
{
  OFFSET -0.914103 98.4936 -8.23013
  CHANNELS 6 Xposition Yposition Zposition Zrotation Xrotation Yrotation
  JOINT LeftUpLeg
  {
    OFFSET 8.64259 1.95398 -2.38835
    CHANNELS 6 Xposition Yposition Zposition Zrotation Xrotation Yrotation
    JOINT LeftLeg
    {
      OFFSET 43.7702 0 0
      CHANNELS 6 Xposition Yposition Zposition Zrotation Xrotation Yrotation
      JOINT LeftFoot
      {
        OFFSET 40.6238 0 0
        CHANNELS 6 Xposition Yposition Zposition Zrotation Xrotation Yrotation
        JOINT LeftToeBase
        {
          OFFSET 12.7242 0 0
          CHANNELS 6 Xposition Yposition Zposition Zrotation Xrotation Yrotation
          End Site
          {
            OFFSET 0 0 0
          }
        }
      }
    }
  }
  JOINT RightUpLeg
  {
    OFFSET -8.2249 1.95398 -2.59336
    CHANNELS 6 Xposition Yposition Zposition Zrotation Xrotation Yrotation
    JOINT RightLeg
    {
      OFFSET 43.5653 0 0
      CHANNELS 6 Xposition Yposition Zposition Zrotation Xrotation Yrotation
      JOINT RightFoot
      {
        OFFSET 40.6238 0 0
        CHANNELS 6 Xposition Yposition Zposition Zrotation Xrotation Yrotation
        JOINT RightToeBase
        {
          OFFSET 12.7242 0 0
          CHANNELS 6 Xposition Yposition Zposition Zrotation Xrotation Yrotation
          End Site
          {
            OFFSET 0 0 0
          }
        }
      }
    }
  }
  JOINT Spine
  {
    OFFSET 0.165834 0.87714 6.61349
    CHANNELS 6 Xposition Yposition Zposition Zrotation Xrotation Yrotation
    JOINT Spine1
    {
      OFFSET 7.38963 1.71661e-005 0
      CHANNELS 6 Xposition Yposition Zposition Zrotation Xrotation Yrotation
      JOINT Spine2
      {
        OFFSET 11.9445 1.14441e-005 0
        CHANNELS 6 Xposition Yposition Zposition Zrotation Xrotation Yrotation
        JOINT Spine3
        {
          OFFSET 14.7254 4.19617e-005 0
          CHANNELS 6 Xposition Yposition Zposition Zrotation Xrotation Yrotation
          JOINT Spine4
          {
            OFFSET 10.9679 0 0
            CHANNELS 6 Xposition Yposition Zposition Zrotation Xrotation Yrotation
            JOINT RightShoulder
            {
              OFFSET 2.46616 -1.6653 3.69651
              CHANNELS 6 Xposition Yposition Zposition Zrotation Xrotation Yrotation
              JOINT RightArm
              {
                OFFSET 13.0012 0 0
                CHANNELS 6 Xposition Yposition Zposition Zrotation Xrotation Yrotation
                JOINT RightForeArm
                {
                  OFFSET 28.7848 1.52588e-005 0
                  CHANNELS 6 Xposition Yposition Zposition Zrotation Xrotation Yrotation
                  JOINT RightHand
                  {
                    OFFSET 26.5688 1.52588e-005 0
                    CHANNELS 6 Xposition Yposition Zposition Zrotation Xrotation Yrotation
                    JOINT RightHandMiddle1
                    {
                      OFFSET 8.03675 -0.886581 0.727868
                      CHANNELS 6 Xposition Yposition Zposition Zrotation Xrotation Yrotation
                      JOINT RightHandMiddle2
                      {
                        OFFSET 2.78833 0 0
                        CHANNELS 6 Xposition Yposition Zposition Zrotation Xrotation Yrotation
                        JOINT RightHandMiddle3
                        {
                          OFFSET 2.41155 0 0
                          CHANNELS 6 Xposition Yposition Zposition Zrotation Xrotation Yrotation
                          End Site
                          {
                            OFFSET 0 0 0
                          }
                        }
                      }
                    }
                    JOINT RightHandRing1
                    {
                      OFFSET 7.97966 -0.886765 -1.00486
                      CHANNELS 6 Xposition Yposition Zposition Zrotation Xrotation Yrotation
                      JOINT RightHandRing2
                      {
                        OFFSET 2.86368 0 0
                        CHANNELS 6 Xposition Yposition Zposition Zrotation Xrotation Yrotation
                        JOINT RightHandRing3
                        {
                          OFFSET 2.11079 0 0
                          CHANNELS 6 Xposition Yposition Zposition Zrotation Xrotation Yrotation
                          End Site
                          {
                            OFFSET 0 0 0
                          }
                        }
                      }
                    }
                    JOINT RightHandPinky1
                    {
                      OFFSET 8.03707 -0.887528 -2.60696
                      CHANNELS 6 Xposition Yposition Zposition Zrotation Xrotation Yrotation
                      JOINT RightHandPinky2
                      {
                        OFFSET 1.84628 0 0
                        CHANNELS 6 Xposition Yposition Zposition Zrotation Xrotation Yrotation
                        JOINT RightHandPinky3
                        {
                          OFFSET 1.88434 0 0
                          CHANNELS 6 Xposition Yposition Zposition Zrotation Xrotation Yrotation
                          End Site
                          {
                            OFFSET 0 0 0
                          }
                        }
                      }
                    }
                    JOINT RightHandIndex1
                    {
                      OFFSET 7.92262 -0.885498 2.31175
                      CHANNELS 6 Xposition Yposition Zposition Zrotation Xrotation Yrotation
                      JOINT RightHandIndex2
                      {
                        OFFSET 2.63761 0 0
                        CHANNELS 6 Xposition Yposition Zposition Zrotation Xrotation Yrotation
                        JOINT RightHandIndex3
                        {
                          OFFSET 2.16656 0 0
                          CHANNELS 6 Xposition Yposition Zposition Zrotation Xrotation Yrotation
                          End Site
                          {
                            OFFSET 0 0 0
                          }
                        }
                      }
                    }
                    JOINT RightHandThumb1
                    {
                      OFFSET 3.4769 0.0597992 2.88789
                      CHANNELS 6 Xposition Yposition Zposition Zrotation Xrotation Yrotation
                      JOINT RightHandThumb2
                      {
                        OFFSET 2.77686 9.72748e-005 -1.52588e-005
                        CHANNELS 6 Xposition Yposition Zposition Zrotation Xrotation Yrotation
                        JOINT RightHandThumb3
                        {
                          OFFSET 2.42058 -9.15528e-005 0
                          CHANNELS 6 Xposition Yposition Zposition Zrotation Xrotation Yrotation
                          End Site
                          {
                            OFFSET 0 0 0
                          }
                        }
                      }
                    }
                  }
                }
              }
            }
            JOINT LeftShoulder
            {
              OFFSET 2.38034 -1.29275 -3.7523
              CHANNELS 6 Xposition Yposition Zposition Zrotation Xrotation Yrotation
              JOINT LeftArm
              {
                OFFSET 16.3182 6.10352e-005 0
                CHANNELS 6 Xposition Yposition Zposition Zrotation Xrotation Yrotation
                JOINT LeftForeArm
                {
                  OFFSET 27.0901 0 0
                  CHANNELS 6 Xposition Yposition Zposition Zrotation Xrotation Yrotation
                  JOINT LeftHand
                  {
                    OFFSET 24.5451 1.52588e-005 0
                    CHANNELS 6 Xposition Yposition Zposition Zrotation Xrotation Yrotation
                    JOINT LeftHandMiddle1
                    {
                      OFFSET 9.21802 0.665817 0.545532
                      CHANNELS 6 Xposition Yposition Zposition Zrotation Xrotation Yrotation
                      JOINT LeftHandMiddle2
                      {
                        OFFSET 2.66255 0 0
                        CHANNELS 6 Xposition Yposition Zposition Zrotation Xrotation Yrotation
                        JOINT LeftHandMiddle3
                        {
                          OFFSET 2.2804 0 0
                          CHANNELS 6 Xposition Yposition Zposition Zrotation Xrotation Yrotation
                          End Site
                          {
                            OFFSET 0 0 0
                          }
                        }
                      }
                    }
                    JOINT LeftHandRing1
                    {
                      OFFSET 9.24775 0.665192 -1.1267
                      CHANNELS 6 Xposition Yposition Zposition Zrotation Xrotation Yrotation
                      JOINT LeftHandRing2
                      {
                        OFFSET 2.47041 0 -1.52588e-005
                        CHANNELS 6 Xposition Yposition Zposition Zrotation Xrotation Yrotation
                        JOINT LeftHandRing3
                        {
                          OFFSET 2.2054 0 0
                          CHANNELS 6 Xposition Yposition Zposition Zrotation Xrotation Yrotation
                          End Site
                          {
                            OFFSET 0 0 0
                          }
                        }
                      }
                    }
                    JOINT LeftHandPinky1
                    {
                      OFFSET 9.35384 0.66301 -2.72332
                      CHANNELS 6 Xposition Yposition Zposition Zrotation Xrotation Yrotation
                      JOINT LeftHandPinky2
                      {
                        OFFSET 1.63407 0 0
                        CHANNELS 6 Xposition Yposition Zposition Zrotation Xrotation Yrotation
                        JOINT LeftHandPinky3
                        {
                          OFFSET 1.71176 0 0
                          CHANNELS 6 Xposition Yposition Zposition Zrotation Xrotation Yrotation
                          End Site
                          {
                            OFFSET 0 0 0
                          }
                        }
                      }
                    }
                    JOINT LeftHandIndex1
                    {
                      OFFSET 8.73161 0.675903 2.06801
                      CHANNELS 6 Xposition Yposition Zposition Zrotation Xrotation Yrotation
                      JOINT LeftHandIndex2
                      {
                        OFFSET 2.66689 0 0
                        CHANNELS 6 Xposition Yposition Zposition Zrotation Xrotation Yrotation
                        JOINT LeftHandIndex3
                        {
                          OFFSET 2.12946 0 1.52588e-005
                          CHANNELS 6 Xposition Yposition Zposition Zrotation Xrotation Yrotation
                          End Site
                          {
                            OFFSET 0 0 0
                          }
                        }
                      }
                    }
                    JOINT LeftHandThumb1
                    {
                      OFFSET 4.96735 -0.62265 3.39586
                      CHANNELS 6 Xposition Yposition Zposition Zrotation Xrotation Yrotation
                      JOINT LeftHandThumb2
                      {
                        OFFSET 2.15386 1.52588e-005 0
                        CHANNELS 6 Xposition Yposition Zposition Zrotation Xrotation Yrotation
                        JOINT LeftHandThumb3
                        {
                          OFFSET 2.19511 -3.43323e-005 1.52588e-005
                          CHANNELS 6 Xposition Yposition Zposition Zrotation Xrotation Yrotation
                          End Site
                          {
                            OFFSET 0 0 0
                          }
                        }
                      }
                    }
                  }
                }
              }
            }
            JOINT Neck
            {
              OFFSET 5.0226 -0.0266342 0
              CHANNELS 6 Xposition Yposition Zposition Zrotation Xrotation Yrotation
              JOINT Head
              {
                OFFSET 6.69364 2.86102e-005 0
                CHANNELS 6 Xposition Yposition Zposition Zrotation Xrotation Yrotation
                End Site
                {
                  OFFSET 0 0 0
                }
              }
            }
          }
        }
      }
    }
  }
}
MOTION
Frames:	4
Frame Time:	0.0333333
-2.60827 84.2677 -92.4259 84.581 -21.078 78.2619 8.64259 1.95398 -2.38835 -167.087 15.8947 97.801 43.7702 7.03335e-006 0 -49.7978 -18.3662 6.95829 40.6238 1.43051e-006 9.53674e-007 39.2906 -5.1335 -5.70953 12.7242 2.38419e-006 9.53674e-007 28.7808 6.1472e-006 7.56055e-007 -8.2249 1.95398 -2.59336 -175.235 49.3335 67.7878 43.5653 7.27177e-006 0 -32.2268 38.8253 2.45716 40.6238 2.38419e-006 9.53674e-007 50.1931 5.86922 4.79266 12.7242 -4.76837e-007 0 28.7808 1.53536e-005 3.18881e-005 0.165834 0.87714 6.61349 -0.247106 9.96072 -85.8009 7.38963 1.71661e-005 -9.72809e-008 6.95146 1.20656 1.74324 11.9445 1.14441e-005 6.65395e-008 -4.72003 1.28209 1.68845 14.7254 4.19617e-005 8.195e-008 -27.2473 0.626985 2.02516 10.9679 -9.53674e-006 5.82672e-008 -7.23467 0.626984 2.02515 2.46616 -1.6653 3.69651 104.152 -34.4924 -78.2335 13.0012 7.10543e-015 0 -1.46283 49.2483 -10.4435 28.7848 1.52588e-005 -1.19209e-007 -6.48102 2.78795 -40.9747 26.5688 1.52588e-005 4.76837e-007 -5.37983 -0.320008 -0.0162412 8.03675 -0.886581 0.727868 -89.4043 88.9709 89.0941 2.78833 2.38419e-007 -2.84217e-014 -0.0604884 -1.56906e-006 1.56765e-007 2.41155 0 -1.42109e-014 -0.0639211 1.75686e-008 -1.06816e-006 7.97966 -0.886765 -1.00486 -89.3948 88.981 89.0846 2.86368 3.55271e-015 1.42109e-014 -1.15742 -8.61772e-006 -5.5103e-007 2.11079 -7.10543e-015 -1.42109e-014 2.576 -4.16011e-007 1.48762e-006 8.03707 -0.887528 -2.60696 -88.8565 89.3579 88.5464 1.84628 -3.55271e-015 1.42109e-014 -1.14578 -3.40825e-006 -1.02225e-006 1.88434 -7.10543e-015 1.42109e-014 1.14577 -4.91692e-006 3.49285e-007 7.92262 -0.885498 2.31175 -89.423 88.9487 89.1127 2.63761 4.76837e-007 0 0.409286 -5.27444e-006 0.000605695 2.16656 -2.38419e-007 0 -0.636601 5.45828e-007 -1.18292e-006 3.4769 0.0597992 2.88789 104.364 40.5023 -88.8246 2.77686 9.72748e-005 -1.52588e-005 -7.66903 0.18617 -1.35044 2.42058 -9.15528e-005 -1.42109e-014 -11.2634 4.53828e-006 6.53374e-005 2.38034 -1.29275 -3.7523 -90.8356 -32.3022 72.544 16.3182 6.10352e-005 1.19209e-007 6.52489 42.1047 -8.1411 27.0901 3.55271e-015 0 6.19724 -1.76029 -68.5373 24.5451 1.52588e-005 -1.42109e-014 -35.738 12.0667 -43.5064 9.21802 0.665817 0.545532 -91.1873 -87.8289 -89.9988 2.66255 7.10543e-015 0 3.40888 -4.79394e-006 0.00347319 2.2804 0 0 -0.954861 1.43184e-006 8.06711e-007 9.24775 0.665192 -1.1267 -91.1871 -89.4015 -89.9985 2.47041 -4.76837e-007 -1.52588e-005 2.85636 -2.84795e-006 0.00277732 2.2054 7.10543e-015 1.42109e-014 -3.16844 1.30886e-006 6.46063e-007 9.35384 0.66301 -2.72332 88.8084 -89.717 89.9969 1.63407 -4.76837e-007 0 2.54481 6.67865e-006 0.00228753 1.71176 0 0 -2.54482 -5.63697e-006 -1.68548e-007 8.73161 0.675903 2.06801 -91.1882 -86.1973 -89.9997 2.66689 -9.53674e-007 0 6.13104 -4.65782e-006 0.00671391 2.12946 1.04308e-007 1.52588e-005 -2.04542 -6.34178e-006 -6.57417e-007 4.96735 -0.62265 3.39586 -101.949 -40.7242 -90.0694 2.15386 1.52588e-005 -1.42109e-014 10.0172 1.94666e-006 2.10793e-007 2.19511 -3.43323e-005 1.52588e-005 -2.66976 -4.72041e-006 -3.4341e-006 5.0226 -0.0266342 -9.09495e-013 12.4215 -17.9194 -18.5372 6.69364 2.86102e-005 -1.09447e-007 -1.33432 -12.9906 2.49598 
0.340719 86.1172 -88.2474 84.3844 -28.37 77.7018 8.64259 1.95398 -2.38835 -167.535 12.4528 95.803 43.7702 7.03335e-006 -1.42109e-014 -48.2802 -7.64247 12.3854 40.6238 1.43051e-006 9.53674e-007 29.2769 -10.5424 -12.7063 12.7242 2.38419e-006 9.53674e-007 28.7808 6.1472e-006 7.56055e-007 -8.2249 1.95398 -2.59336 -176.612 47.8344 73.6593 43.5653 7.27177e-006 0 -33.8622 38.3755 2.44816 40.6238 2.38419e-006 9.53674e-007 53.8914 4.07853 3.15953 12.7242 -4.76837e-007 0 28.7808 1.53536e-005 3.18881e-005 0.165834 0.87714 6.61349 -0.643095 9.62615 -85.9705 7.38963 1.71661e-005 -9.72809e-008 7.57434 0.158216 2.19221 11.9445 1.14441e-005 6.65395e-008 -4.09844 0.254502 2.18313 14.7254 4.19617e-005 8.195e-008 -26.6193 -0.507816 2.13846 10.9679 -9.53674e-006 5.82672e-008 -6.60662 -0.507796 2.13847 2.46616 -1.6653 3.69651 104.435 -31.8559 -77.5257 13.0012 7.10543e-015 0 -0.93495 45.4869 -8.81242 28.7848 1.52588e-005 -1.19209e-007 -5.85351 1.53041 -34.6859 26.5688 1.52588e-005 4.76837e-007 -5.37983 -0.320008 -0.0162412 8.03675 -0.886581 0.727868 -89.4043 88.9709 89.0941 2.78833 2.38419e-007 -2.84217e-014 -0.0604884 -1.56906e-006 1.56765e-007 2.41155 -6.21725e-015 0 -0.0639211 1.75686e-008 -1.06816e-006 7.97966 -0.886765 -1.00486 -89.3948 88.981 89.0846 2.86368 -1.77636e-015 0 -1.15742 -8.61772e-006 -5.5103e-007 2.11079 5.32907e-015 2.84217e-014 2.576 -4.16011e-007 1.48762e-006 8.03707 -0.887528 -2.60696 -88.8565 89.3579 88.5464 1.84628 1.77636e-015 0 -1.14578 -3.40825e-006 -1.02225e-006 1.88434 -5.32907e-015 0 1.14577 -4.91692e-006 3.49285e-007 7.92262 -0.885498 2.31175 -89.423 88.9487 89.1127 2.63761 4.76837e-007 0 0.409286 -5.27444e-006 0.000605695 2.16656 -2.38419e-007 0 -0.636601 5.45828e-007 -1.18292e-006 3.4769 0.0597992 2.88789 104.364 40.5023 -88.8246 2.77686 9.72748e-005 -1.52588e-005 -7.66903 0.18617 -1.35044 2.42058 -9.15528e-005 1.42109e-014 -11.2634 4.53828e-006 6.53374e-005 2.38034 -1.29275 -3.7523 -91.396 -34.5563 72.2941 16.3182 6.10352e-005 1.19209e-007 14.6529 38.4896 -10.2181 27.0901 3.55271e-015 2.84217e-014 1.80449 -4.11259 -70.8492 24.5451 1.52588e-005 0 -39.3114 12.6215 -41.1839 9.21802 0.665817 0.545532 -91.1873 -87.8289 -89.9988 2.66255 0 0 3.40888 -4.79394e-006 0.00347319 2.2804 0 -1.42109e-014 -0.954861 1.43184e-006 8.06711e-007 9.24775 0.665192 -1.1267 -91.1871 -89.4015 -89.9985 2.47041 -4.76837e-007 -1.52588e-005 2.85636 -2.84795e-006 0.00277732 2.2054 -7.10543e-015 1.42109e-014 -3.16844 1.30886e-006 6.46063e-007 9.35384 0.66301 -2.72332 88.8084 -89.717 89.9969 1.63407 -4.76837e-007 0 2.54481 6.67865e-006 0.00228753 1.71176 7.10543e-015 -1.42109e-014 -2.54482 -5.63697e-006 -1.68548e-007 8.73161 0.675903 2.06801 -91.1882 -86.1973 -89.9997 2.66689 -9.53674e-007 0 6.13104 -4.65782e-006 0.00671391 2.12946 1.04308e-007 1.52588e-005 -2.04542 -6.34178e-006 -6.57417e-007 4.96735 -0.62265 3.39586 -101.949 -40.7242 -90.0694 2.15386 1.52588e-005 -1.42109e-014 10.0172 1.94666e-006 2.10793e-007 2.19511 -3.43323e-005 1.52588e-005 -2.66976 -4.72041e-006 -3.4341e-006 5.0226 -0.0266342 -9.09495e-013 10.5077 -11.194 -14.257 6.69364 2.86102e-005 -1.09447e-007 -3.05733 -7.69394 1.97499 
2.45275 88.0959 -83.6659 84.3187 -34.2977 78.9988 8.64259 1.95398 -2.38835 -165.988 13.3062 97.1871 43.7702 7.03335e-006 1.42109e-014 -51.2453 4.01317 13.7788 40.6238 1.43051e-006 9.53674e-007 32.5677 -11.5562 -13.0783 12.7242 2.38419e-006 9.53674e-007 28.7808 6.1472e-006 7.56055e-007 -8.2249 1.95398 -2.59336 -178.473 44.1259 80.5471 43.5653 7.27177e-006 -7.10543e-015 -32.2907 38.4104 2.43375 40.6238 2.38419e-006 9.53674e-007 54.8628 2.50062 2.01324 12.7242 -4.76837e-007 0 28.7808 1.53536e-005 3.18881e-005 0.165834 0.87714 6.61349 -1.10074 9.32795 -86.0668 7.38963 1.71661e-005 -9.72809e-008 8.1334 -0.855181 2.13746 11.9445 1.14441e-005 6.65395e-008 -3.53907 -0.760277 2.173 14.7254 4.19617e-005 8.195e-008 -26.066 -1.45793 1.7818 10.9679 -9.53674e-006 5.82672e-008 -6.05335 -1.45794 1.7818 2.46616 -1.6653 3.69651 104.901 -29.835 -76.4321 13.0012 0 0 -0.697718 42.2854 -6.03577 28.7848 1.52588e-005 -1.19209e-007 -5.14469 0.903701 -26.8329 26.5688 1.52588e-005 4.76837e-007 -5.37983 -0.320008 -0.0162412 8.03675 -0.886581 0.727868 -89.4043 88.9709 89.0941 2.78833 2.38419e-007 2.84217e-014 -0.0604884 -1.56906e-006 1.56765e-007 2.41155 -5.32907e-015 -2.84217e-014 -0.0639211 1.75686e-008 -1.06816e-006 7.97966 -0.886765 -1.00486 -89.3948 88.981 89.0846 2.86368 -1.77636e-015 2.84217e-014 -1.15742 -8.61772e-006 -5.5103e-007 2.11079 -1.06581e-014 -2.84217e-014 2.576 -4.16011e-007 1.48762e-006 8.03707 -0.887528 -2.60696 -88.8565 89.3579 88.5464 1.84628 0 0 -1.14578 -3.40825e-006 -1.02225e-006 1.88434 3.55271e-015 0 1.14577 -4.91692e-006 3.49285e-007 7.92262 -0.885498 2.31175 -89.423 88.9487 89.1127 2.63761 4.76837e-007 0 0.409286 -5.27444e-006 0.000605695 2.16656 -2.38419e-007 0 -0.636601 5.45828e-007 -1.18292e-006 3.4769 0.0597992 2.88789 104.364 40.5023 -88.8246 2.77686 9.72748e-005 -1.52588e-005 -7.66903 0.18617 -1.35044 2.42058 -9.15528e-005 0 -11.2634 4.53828e-006 6.53374e-005 2.38034 -1.29275 -3.7523 -91.4087 -33.7618 71.9974 16.3182 6.10352e-005 1.19209e-007 19.3173 36.7154 -12.5953 27.0901 7.10543e-015 0 0.651716 -3.45055 -69.0789 24.5451 1.52588e-005 0 -40.8896 15.7551 -47.7997 9.21802 0.665817 0.545532 -91.1873 -87.8289 -89.9988 2.66255 -1.42109e-014 0 3.40888 -4.79394e-006 0.00347319 2.2804 0 0 -0.954861 1.43184e-006 8.06711e-007 9.24775 0.665192 -1.1267 -91.1871 -89.4015 -89.9985 2.47041 -4.76837e-007 -1.52588e-005 2.85636 -2.84795e-006 0.00277732 2.2054 1.42109e-014 1.42109e-014 -3.16844 1.30886e-006 6.46063e-007 9.35384 0.66301 -2.72332 88.8084 -89.717 89.9969 1.63407 -4.76837e-007 0 2.54481 6.67865e-006 0.00228753 1.71176 0 0 -2.54482 -5.63697e-006 -1.68548e-007 8.73161 0.675903 2.06801 -91.1882 -86.1973 -89.9997 2.66689 -9.53674e-007 1.42109e-014 6.13104 -4.65782e-006 0.00671391 2.12946 1.04308e-007 1.52588e-005 -2.04542 -6.34178e-006 -6.57417e-007 4.96735 -0.62265 3.39586 -101.949 -40.7242 -90.0694 2.15386 1.52588e-005 -1.42109e-014 10.0172 1.94666e-006 2.10793e-007 2.19511 -3.43323e-005 1.52588e-005 -2.66976 -4.72041e-006 -3.4341e-006 5.0226 -0.0266342 -9.09495e-013 8.48935 -5.68609 -12.6299 6.69364 2.86102e-005 -1.09447e-007 -3.86087 -2.90827 1.23233 
4.18084 89.9812 -79.3448 84.1454 -39.4657 79.7025 8.64259 1.95398 -2.38835 -166.523 15.8836 98.3229 43.7702 7.03335e-006 -1.42109e-014 -48.7681 -7.01443 9.60687 40.6238 1.43051e-006 9.53674e-007 37.3675 -4.77382 -5.56717 12.7242 2.38419e-006 9.53674e-007 28.7808 6.1472e-006 7.56055e-007 -8.2249 1.95398 -2.59336 -179.381 39.8985 85.8349 43.5653 7.27177e-006 0 -28.9107 36.647 2.24323 40.6238 2.38419e-006 9.53674e-007 54.752 1.05657 1.03282 12.7242 -4.76837e-007 0 28.7808 1.53536e-005 3.18881e-005 0.165834 0.87714 6.61349 -1.504 8.96231 -85.9366 7.38963 1.71661e-005 -9.72809e-008 8.83017 -1.65859 2.35506 11.9445 1.14441e-005 6.65395e-008 -2.84197 -1.55338 2.42573 14.7254 4.19617e-005 8.195e-008 -25.3751 -2.2896 1.74787 10.9679 -9.53674e-006 5.82672e-008 -5.36244 -2.28961 1.74786 2.46616 -1.6653 3.69651 105.575 -30.1674 -75.0832 13.0012 0 2.84217e-014 -1.66334 40.3375 -0.571674 28.7848 1.52588e-005 -1.19209e-007 -4.80207 0.688659 -24.9924 26.5688 1.52588e-005 4.76837e-007 -5.37983 -0.320008 -0.0162412 8.03675 -0.886581 0.727868 -89.4043 88.9709 89.0941 2.78833 2.38419e-007 5.68434e-014 -0.0604884 -1.56906e-006 1.56765e-007 2.41155 3.55271e-015 2.84217e-014 -0.0639211 1.75686e-008 -1.06816e-006 7.97966 -0.886765 -1.00486 -89.3948 88.981 89.0846 2.86368 -3.55271e-015 0 -1.15742 -8.61772e-006 -5.5103e-007 2.11079 0 -2.84217e-014 2.576 -4.16011e-007 1.48762e-006 8.03707 -0.887528 -2.60696 -88.8565 89.3579 88.5464 1.84628 0 0 -1.14578 -3.40825e-006 -1.02225e-006 1.88434 -1.06581e-014 2.84217e-014 1.14577 -4.91692e-006 3.49285e-007 7.92262 -0.885498 2.31175 -89.423 88.9487 89.1127 2.63761 4.76837e-007 0 0.409286 -5.27444e-006 0.000605695 2.16656 -2.38419e-007 0 -0.636601 5.45828e-007 -1.18292e-006 3.4769 0.0597992 2.88789 104.364 40.5023 -88.8246 2.77686 9.72748e-005 -1.52588e-005 -7.66903 0.18617 -1.35044 2.42058 -9.15528e-005 0 -11.2634 4.53828e-006 6.53374e-005 2.38034 -1.29275 -3.7523 -90.9551 -29.5108 71.3081 16.3182 6.10352e-005 1.19209e-007 22.9435 36.0788 -15.3202 27.0901 0 0 -4.73809 -3.04601 -67.5863 24.5451 1.52588e-005 -7.10543e-015 -37.2642 12.4979 -43.0796 9.21802 0.665817 0.545532 -91.1873 -87.8289 -89.9988 2.66255 -7.10543e-015 0 3.40888 -4.79394e-006 0.00347319 2.2804 0 0 -0.954861 1.43184e-006 8.06711e-007 9.24775 0.665192 -1.1267 -91.1871 -89.4015 -89.9985 2.47041 -4.76837e-007 -1.52588e-005 2.85636 -2.84795e-006 0.00277732 2.2054 0 0 -3.16844 1.30886e-006 6.46063e-007 9.35384 0.66301 -2.72332 88.8084 -89.717 89.9969 1.63407 -4.76837e-007 1.42109e-014 2.54481 6.67865e-006 0.00228753 1.71176 0 0 -2.54482 -5.63697e-006 -1.68548e-007 8.73161 0.675903 2.06801 -91.1882 -86.1973 -89.9997 2.66689 -9.53674e-007 0 6.13104 -4.65782e-006 0.00671391 2.12946 1.04308e-007 1.52588e-005 -2.04542 -6.34178e-006 -6.57417e-007 4.96735 -0.62265 3.39586 -101.949 -40.7242 -90.0694 2.15386 1.52588e-005 0 10.0172 1.94666e-006 2.10793e-007 2.19511 -3.43323e-005 1.52588e-005 -2.66976 -4.72041e-006 -3.4341e-006 5.0226 -0.0266342 -9.09495e-013 3.93374 -1.5947 -18.6297 6.69364 2.86102e-005 -1.09447e-007 -3.18135 1.5928 7.93841 
